{"title":"The Watch 2012 BRRip Ac3 Xvid-ANALOG","uid":7791711,"size":1670285053,"categoryP":"video","categoryS":"movies","magnet":"?xt=urn:btih:e1b19dfbf430cf62b9ed49d3084b1b033ef95052&amp;dn=The+Watch+2012+BRRip+Ac3+Xvid-ANALOG&amp;tr=udp%3A%2F%2Ftracker.openbittorrent.com%3A80&amp;tr=udp%3A%2F%2Fopen.demonii.com%3A1337&amp;tr=udp%3A%2F%2Ftracker.coppersurfer.tk%3A6969&amp;tr=udp%3A%2F%2Fexodus.desync.com%3A6969","seeders":0,"leechers":1,"uploader":"Gh0stNet","files":10,"time":1352041107,"description":" &lt;a href=&quot;http://www.imdb.com/title/tt1298649/&quot; rel=&quot;nofollow&quot; target=&quot;_NEW&quot;&gt;http://www.imdb.com/title/tt1298649/&lt;/a&gt;\nGeneral\nComplete name : The.Watch.2012.BRRip.Ac3.Xvid.ANALOGT.W.2012.BRR.ANALOG.avi\nFormat : AVI\nFormat/Info : Audio Video Interleave\nFile size : 1.53 GiB\nDuration : 1h 41mn\nOverall bit rate : 2 143 Kbps\n\nVideo\nID : 0\nFormat : MPEG-4 Visual\nFormat profile : Advanced Simple@L5\nFormat settings, BVOP : 2\nFormat settings, QPel : No\nFormat settings, GMC : No warppoints\nFormat settings, Matrix : Default (MPEG)\nMuxing mode : Packed bitstream\nCodec ID : XVID\nCodec ID/Hint : XviD\nDuration : 1h 41mn\nBit rate : 1 751 Kbps\nWidth : 720 pixels\nHeight : 304 pixels\nDisplay aspect ratio : 2.35:1\nFrame rate : 23.976 fps\nColor space : YUV\nChroma subsampling : 4:2:0\nBit depth : 8 bits\nScan type : Progressive\nCompression mode : Lossy\nBits/(Pixel*Frame) : 0.334\nStream size : 1.25 GiB (82%)\nWriting library : XviD 1.2.1 (UTC 2008-12-04)\n\nAudio\nID : 1\nFormat : AC-3\nFormat/Info : Audio Coding 3\nMode extension : CM (complete main)\nFormat settings, Endianness : Big\nCodec ID : 2000\nDuration : 1h 41mn\nBit rate mode : Constant\nBit rate : 384 Kbps\nChannel(s) : 6 channels\nChannel positions : Front: L C R, Side: L R, LFE\nSampling rate : 48.0 KHz\nBit depth : 16 bits\nCompression mode : Lossy\nStream size : 280 MiB (18%)\nAlignment : Aligned on interleaves\nInterleave, duration : 64 ms (1.53 video frames)\nInterleave, preload duration : 192 ms\nTitle : the.track_2_English_ANALOG\nSample : Yes\nSubs : English(hard.of.hearing)\nSource : 720p.SPARKS THANX\n &lt;a href=&quot;\nhttp://old.rapidimg.org/images/S5He.jpg&quot; rel=&quot;nofollow&quot; target=&quot;_NEW&quot;&gt;\nhttp://old.rapidimg.org/images/S5He.jpg&lt;/a&gt; &lt;a href=&quot;\nhttp://old.rapidimg.org/images/Ik4aN.jpg&quot; rel=&quot;nofollow&quot; target=&quot;_NEW&quot;&gt;\nhttp://old.rapidimg.org/images/Ik4aN.jpg&lt;/a&gt; &lt;a href=&quot;\nhttp://old.rapidimg.org/images/wmsNo.jpg&quot; rel=&quot;nofollow&quot; target=&quot;_NEW&quot;&gt;\nhttp://old.rapidimg.org/images/wmsNo.jpg&lt;/a&gt; &lt;a href=&quot;\nhttp://old.rapidimg.org/images/beEDZ.jpg&quot; rel=&quot;nofollow&quot; target=&quot;_NEW&quot;&gt;\nhttp://old.rapidimg.org/images/beEDZ.jpg&lt;/a&gt; &lt;a href=&quot;\nhttp://old.rapidimg.org/images/nIjaP.jpg&quot; rel=&quot;nofollow&quot; target=&quot;_NEW&quot;&gt;\nhttp://old.rapidimg.org/images/nIjaP.jpg&lt;/a&gt;","torrent":{"xt":"urn:btih:e1b19dfbf430cf62b9ed49d3084b1b033ef95052","amp;dn":"The+Watch+2012+BRRip+Ac3+Xvid-ANALOG","amp;tr":["udp%3A%2F%2Ftracker.openbittorrent.com%3A80","udp%3A%2F%2Fopen.demonii.com%3A1337","udp%3A%2F%2Ftracker.coppersurfer.tk%3A6969","udp%3A%2F%2Fexodus.desync.com%3A6969"],"infoHash":"e1b19dfbf430cf62b9ed49d3084b1b033ef95052","infoHashBuffer":{"type":"Buffer","data":[225,177,157,251,244,48,207,98,185,237,73,211,8,75,27,3,62,249,80,82]},"announce":[],"urlList":[]}}